<svg id="_172475_headset_support_icon" data-name="172475_headset_support_icon" xmlns="http://www.w3.org/2000/svg" width="41" height="41" viewBox="0 0 41 41">
  <rect id="Rectangle_315" data-name="Rectangle 315" width="41" height="41" fill="none"/>
  <path id="Path_975" data-name="Path 975" d="M43.28,19.64a1.64,1.64,0,0,0-3.28,0v12.3a1.64,1.64,0,1,0,3.28,0Z" transform="translate(-7.2 -3.24)" fill="none" stroke="#607698" stroke-width="1.5"/>
  <path id="Path_976" data-name="Path 976" d="M26.74,46.28a1.64,1.64,0,1,0,0-3.28h-4.1a1.64,1.64,0,1,0,0,3.28Z" transform="translate(-3.78 -7.74)" fill="none" stroke="#607698" stroke-width="1.5"/>
  <path id="Path_977" data-name="Path 977" d="M8,15.94a13.94,13.94,0,1,1,27.88,0" transform="translate(-1.44 -0.36)" fill="none" stroke="#607698" stroke-width="1.5"/>
  <path id="Path_978" data-name="Path 978" d="M44,20c2.265,0,4.1,2.753,4.1,6.15S46.265,32.3,44,32.3" transform="translate(-7.92 -3.6)" fill="none" stroke="#607698" stroke-width="1.5"/>
  <path id="Path_979" data-name="Path 979" d="M6,19.64a1.64,1.64,0,0,1,3.28,0v12.3a1.64,1.64,0,1,1-3.28,0Z" transform="translate(-1.08 -3.24)" fill="none" stroke="#607698" stroke-width="1.5"/>
  <path id="Path_980" data-name="Path 980" d="M5.1,20C2.836,20,1,22.753,1,26.15S2.836,32.3,5.1,32.3" transform="translate(-0.18 -3.6)" fill="none" stroke="#607698" stroke-width="1.5"/>
  <path id="Path_981" data-name="Path 981" d="M39.84,37c0,4.1-2.46,6.56-6.56,6.56H30" transform="translate(-5.4 -6.66)" fill="none" stroke="#607698" stroke-width="1.5"/>
</svg>
